<svg width="22" height="22" viewBox="0 0 22 22" fill="none" xmlns="http://www.w3.org/2000/svg">
<path opacity="0.4" fillRule="evenodd" clipRule="evenodd" d="M10.9795 0.77002C16.8003 0.77002 21.5195 5.48953 21.5195 11.31C21.5195 17.1309 16.7999 21.85 10.9795 21.85C5.15858 21.85 0.439453 17.1305 0.439453 11.31C0.439453 5.48914 5.15896 0.77002 10.9795 0.77002ZM11.7832 4.65561C12.7746 4.65561 13.5784 5.45939 13.5784 6.45074C13.5784 7.43986 12.7746 8.2438 11.7832 8.2438C10.7919 8.2438 9.99018 7.44002 9.99018 6.45074C9.99018 5.45936 10.7918 4.65561 11.7832 4.65561ZM8.74042 9.2435H12.488C13.0828 9.2435 13.2488 9.75205 13.1387 10.1421C13.0267 10.53 11.9686 16.1289 12.3414 16.7604C12.7121 17.3917 13.5719 16.3444 13.8693 16.3272C14.1645 16.3078 14.3886 16.5815 14.227 17.0146C14.0654 17.4455 13.1193 18.4002 11.1281 18.4002C9.13698 18.4002 8.45587 16.7408 8.78987 15.0341C9.12388 13.3273 9.57426 11.211 9.60012 10.9203C9.62387 10.6294 9.58508 10.2522 9.10869 10.2566C8.93627 10.2566 8.76821 10.2522 8.62601 10.2264C7.93632 10.0971 8.11746 9.22645 8.74025 9.24373L8.74042 9.2435Z" fill="white"/>
</svg>
