<svg width="22" height="19" viewBox="0 0 22 19" fill="none" xmlns="http://www.w3.org/2000/svg">
<path opacity="0.4" d="M19.8993 0.390137H2.05954C1.62941 0.390137 1.2169 0.561004 0.912757 0.865149C0.608611 1.1693 0.437744 1.5818 0.437744 2.01193V16.6081C0.437744 17.0382 0.608611 17.4507 0.912757 17.7549C1.2169 18.059 1.62941 18.2299 2.05954 18.2299H19.8993C20.3294 18.2299 20.7419 18.059 21.0461 17.7549C21.3502 17.4507 21.5211 17.0382 21.5211 16.6081V2.01193C21.5211 1.5818 21.3502 1.1693 21.0461 0.865149C20.7419 0.561004 20.3294 0.390137 19.8993 0.390137ZM10.9794 10.1209C9.68903 10.1209 8.4515 9.60831 7.53906 8.69587C6.62663 7.78343 6.11403 6.5459 6.11403 5.25552C6.11403 5.04046 6.19946 4.8342 6.35153 4.68213C6.50361 4.53006 6.70986 4.44462 6.92492 4.44462C7.13999 4.44462 7.34624 4.53006 7.49831 4.68213C7.65039 4.8342 7.73582 5.04046 7.73582 5.25552C7.73582 6.11578 8.07756 6.9408 8.68585 7.54909C9.29414 8.15738 10.1192 8.49911 10.9794 8.49911C11.8397 8.49911 12.6647 8.15738 13.273 7.54909C13.8813 6.9408 14.223 6.11578 14.223 5.25552C14.223 5.04046 14.3084 4.8342 14.4605 4.68213C14.6126 4.53006 14.8188 4.44462 15.0339 4.44462C15.249 4.44462 15.4552 4.53006 15.6073 4.68213C15.7594 4.8342 15.8448 5.04046 15.8448 5.25552C15.8448 6.5459 15.3322 7.78343 14.4198 8.69587C13.5073 9.60831 12.2698 10.1209 10.9794 10.1209Z" fill="white"/>
</svg>
