<svg width="22" height="23" viewBox="0 0 22 23" fill="none" xmlns="http://www.w3.org/2000/svg">
<path opacity="0.4" d="M5.56165 0.881226L0.550608 5.89226C-0.184867 6.62774 -0.184837 7.82395 0.550608 8.5594L13.7302 21.739C14.4657 22.4744 15.6619 22.4744 16.3973 21.739L21.4083 16.7279C22.1438 15.9925 22.1438 14.7962 21.4083 14.0608L8.22878 0.881226C7.49318 0.145627 6.29709 0.145781 5.56165 0.881226ZM6.28628 3.11456C6.67152 2.72932 7.29379 2.73197 7.67915 3.11733C8.06175 3.49993 8.06439 4.12219 7.67915 4.50743C7.29391 4.89267 6.67165 4.89002 6.28905 4.50743C5.90381 4.12219 5.90104 3.4998 6.28628 3.11456ZM8.17216 5.00044C8.5574 4.6152 9.17966 4.61784 9.56503 5.00321C9.94762 5.3858 9.95027 6.00806 9.56503 6.39331C9.17978 6.77855 8.55752 6.7759 8.17493 6.39331C7.78969 6.00806 7.78692 5.38568 8.17216 5.00044ZM10.058 6.88631C10.4433 6.50107 11.0655 6.50372 11.4509 6.88908C11.8335 7.27168 11.8361 7.89394 11.4509 8.27918C11.0657 8.66442 10.4434 8.66177 10.0608 8.27918C9.67556 7.89394 9.67279 7.27155 10.058 6.88631ZM2.78395 6.6169C3.16919 6.23166 3.79145 6.23431 4.17681 6.61967C4.55941 7.00226 4.56206 7.62453 4.17681 8.00977C3.79157 8.39501 3.16931 8.39236 2.78672 8.00977C2.40147 7.62453 2.3987 7.00214 2.78395 6.6169ZM4.66982 8.50277C5.05506 8.11753 5.67732 8.12018 6.06269 8.50555C6.44528 8.88814 6.44793 9.5104 6.06269 9.89564C5.67745 10.2809 5.05518 10.2782 4.67259 9.89564C4.28735 9.5104 4.28458 8.88802 4.66982 8.50277ZM6.55569 10.3886C6.94094 10.0034 7.5632 10.0061 7.94856 10.3914C8.33116 10.774 8.3338 11.3963 7.94856 11.7815C7.56332 12.1668 6.94106 12.1641 6.55846 11.7815C6.17322 11.3963 6.17045 10.7739 6.55569 10.3886ZM15.4921 19.3251C15.1069 19.7103 14.4846 19.7077 14.102 19.3251C13.7168 18.9398 13.714 18.3174 14.0993 17.9322C14.4845 17.547 15.1068 17.5496 15.4921 17.935C15.8747 18.3176 15.8774 18.9398 15.4921 19.3251ZM13.6951 17.5281C13.3099 17.9133 12.6903 17.9133 12.305 17.5281C11.9198 17.1429 11.9198 16.5232 12.305 16.138C12.6903 15.7528 13.3099 15.7528 13.6951 16.138C14.0804 16.5232 14.0804 17.1428 13.6951 17.5281ZM11.9898 15.8227C11.6045 16.208 10.9823 16.2053 10.5997 15.8227C10.2144 15.4375 10.2117 14.8151 10.5969 14.4299C10.9822 14.0446 11.6044 14.0473 11.9898 14.4326C12.3724 14.8152 12.375 15.4375 11.9898 15.8227ZM19.2639 16.0921C18.8786 16.4774 18.2564 16.4747 17.8738 16.0921C17.4885 15.7069 17.4858 15.0845 17.871 14.6993C18.2562 14.314 18.8785 14.3167 19.2639 14.7021C19.6465 15.0846 19.6491 15.7069 19.2639 16.0921ZM17.378 14.2063C16.9928 14.5915 16.3705 14.5889 15.9879 14.2063C15.6027 13.821 15.5999 13.1986 15.9851 12.8134C16.3704 12.4282 16.9926 12.4308 17.378 12.8162C17.7606 13.1988 17.7632 13.821 17.378 14.2063ZM15.4921 12.3204C15.1069 12.7056 14.4846 12.703 14.102 12.3204C13.7168 11.9352 13.714 11.3128 14.0993 10.9275C14.4845 10.5423 15.1068 10.5449 15.4921 10.9303C15.8747 11.3129 15.8774 11.9352 15.4921 12.3204ZM14.1342 8.69416L8.36361 14.4648C8.21543 14.613 7.97296 14.613 7.82479 14.4648C7.67661 14.3166 7.67661 14.0741 7.82479 13.926L13.5957 8.15504C13.7439 8.00686 13.9864 8.00686 14.1345 8.15504C14.2826 8.30333 14.2826 8.5458 14.1344 8.69398L14.1342 8.69416Z" fill="white"/>
</svg>
