<svg width="23" height="19" viewBox="0 0 23 19" fill="none" xmlns="http://www.w3.org/2000/svg">
<path opacity="0.4" d="M23.0004 6.2241C23.0023 6.63217 22.8857 7.03196 22.6651 7.3751C22.4445 7.71824 22.1293 7.99011 21.7573 8.15771L19.2852 9.27636L17.9041 9.89793L13.982 11.6795C12.7167 12.2689 11.2561 12.2687 9.99084 11.6793L6.05481 9.89774L4.67377 9.27617L3.29272 8.64093V13.5616C3.49214 13.6868 3.61236 13.9063 3.61043 14.1417V15.5642C3.61217 15.7478 3.54011 15.9245 3.41006 16.0544C3.2802 16.1844 3.10353 16.2565 2.91991 16.2547H2.28468C2.10087 16.2565 1.9242 16.1844 1.79434 16.0544C1.66448 15.9245 1.59223 15.7478 1.59416 15.5642V14.1417C1.59223 13.9063 1.71245 13.6868 1.91168 13.5616V8.25424C1.9109 8.17409 1.92478 8.09452 1.9531 8.01957C1.5169 7.74676 1.19476 7.32422 1.04738 6.83118C0.899988 6.33795 0.937365 5.80813 1.15238 5.34049C1.3674 4.87308 1.74539 4.49968 2.21554 4.29065L9.99082 0.769088C11.258 0.18895 12.7149 0.18895 13.9821 0.769088L21.7574 4.29065C22.1295 4.45827 22.4445 4.73013 22.6651 5.07326C22.8857 5.4164 23.0021 5.8162 23.0004 6.2241ZM14.5484 12.936C12.924 13.6911 11.0492 13.6913 9.42452 12.9362L4.67372 10.7957V13.5217C4.67681 14.5974 5.17623 15.6116 6.0272 16.27C7.73846 17.5778 9.83257 18.2862 11.9864 18.2862C14.1402 18.2862 16.2342 17.5778 17.9456 16.27C18.793 15.6103 19.2873 14.5957 19.2852 13.5217V10.7818L18.4704 11.1546L14.5484 12.936Z" fill="white"/>
</svg>
