<svg width="17" height="22" viewBox="0 0 17 22" fill="none" xmlns="http://www.w3.org/2000/svg">
<path opacity="0.4" d="M2.79921 18.3219H15.9353C16.4456 18.3219 16.8451 17.9002 16.8451 17.4121V1.67982C16.8451 1.16951 16.4235 0.77002 15.9353 0.77002H1.02406C0.513745 0.77002 0.114258 1.19166 0.114258 1.67982V19.165C0.114258 20.6517 1.3124 21.85 2.79925 21.85H15.9353C16.4457 21.85 16.8451 21.4284 16.8451 20.9402C16.8451 20.4299 16.4235 20.0304 15.9353 20.0304L2.79925 20.0303C2.33319 20.0303 1.95601 19.6531 1.95601 19.187C1.95601 18.699 2.33321 18.3218 2.79925 18.3218L2.79921 18.3219ZM8.63501 15.5259C7.92487 15.5259 7.34803 14.9491 7.34803 14.239C7.34803 13.5289 7.92491 12.952 8.63501 12.952C9.34511 12.952 9.92199 13.5289 9.92199 14.239C9.94412 14.9491 9.3671 15.5259 8.63501 15.5259ZM8.52403 3.58807C10.0107 3.58807 11.2977 4.32032 11.8968 5.54077C12.4737 6.69465 12.385 8.04821 11.6306 9.06884C11.1425 9.71225 10.6543 10.0673 10.2992 10.3114C9.89986 10.5776 9.7666 10.6886 9.7223 11.3099C9.70017 11.6427 9.41166 11.8868 9.07889 11.8868H8.21351C8.03597 11.8868 7.85844 11.8202 7.74745 11.6871C7.63647 11.554 7.56991 11.3765 7.56991 11.1989C7.70303 9.62341 8.32431 9.06867 9.0566 8.55836C9.34511 8.35869 9.61133 8.15903 9.87757 7.80396C10.1438 7.44889 10.1661 6.96073 9.96626 6.53909C9.81086 6.25058 9.43367 5.76238 8.50172 5.76238C7.30358 5.76238 6.9262 6.49463 6.81537 7.11593C6.77095 7.42657 6.50473 7.64852 6.19407 7.64852H5.30657C5.12904 7.64852 4.92937 7.55983 4.81841 7.42656C4.70743 7.29345 4.64087 7.09378 4.66301 6.91624C4.9071 5.36319 6.03871 3.588 8.52399 3.588L8.52403 3.58807Z" fill="white"/>
</svg>
