<svg width="24" height="24" viewBox="0 0 24 24" fill="none" xmlns="http://www.w3.org/2000/svg">
    <path opacity=".4" fillRule="evenodd" clipRule="evenodd" d="m12.004 12.096-1.078-.188c-1.976-.345-3.49-1.625-3.766-3.184L5.833 1.23h12.342l-1.328 7.494c-.276 1.56-1.79 2.84-3.766 3.184l-1.077.188zm0-8.261-.588 1.19a.202.202 0 0 1-.152.11l-1.314.191.951.927c.048.046.07.114.058.18l-.225 1.307 1.176-.617a.199.199 0 0 1 .187 0l1.176.617-.225-1.308a.203.203 0 0 1 .058-.18l.951-.926-1.313-.19a.2.2 0 0 1-.153-.111l-.587-1.19zm5.318 4.533 1.052-5.943h4.17l-1.435 3.618c-.452 1.138-1.835 2.018-3.61 2.297l-.177.028zM6.758 20.795h-.936v1.47h12.363v-1.47H6.758zm7.534-4.408H9.715c1.542-1.03 1.628-3.246 1.609-3.999l.645.113a.242.242 0 0 0 .033.003h.002a.236.236 0 0 0 .034-.003l.645-.113c-.019.753.067 2.968 1.609 4zm-7.331 1.04v2.963h10.086v-2.963a.635.635 0 0 0-.634-.634H7.595a.635.635 0 0 0-.634.634zM5.632 2.426l1.053 5.942-.176-.028c-1.776-.279-3.16-1.159-3.611-2.297L1.463 2.426h4.17z" fill="#fff"/>
</svg>
